<svg xmlns="http://www.w3.org/2000/svg" id="aim" width="60.258" height="60.258" viewBox="0 0 60.258 60.258"><path id="&#x41A;&#x43E;&#x43D;&#x442;&#x443;&#x440;_27342" data-name="&#x41A;&#x43E;&#x43D;&#x442;&#x443;&#x440; 27342" d="M398.179,12.042h0a5.24,5.24,0,0,1,0-7.41L402.811,0l1.853,5.558,5.558,1.853-4.631,4.631A5.24,5.24,0,0,1,398.179,12.042Z" transform="translate(-349.963)" fill="#fcca22"></path><path id="&#x41A;&#x43E;&#x43D;&#x442;&#x443;&#x440;_27343" data-name="&#x41A;&#x43E;&#x43D;&#x442;&#x443;&#x440; 27343" d="M409.685,53.707l6.484-6.484,5.558,1.853L417.1,53.707a5.24,5.24,0,0,1-7.41,0Z" transform="translate(-361.469 -41.665)" fill="#ffa800"></path><path id="&#x41A;&#x43E;&#x43D;&#x442;&#x443;&#x440;_27344" data-name="&#x41A;&#x43E;&#x43D;&#x442;&#x443;&#x440; 27344" d="M111.321,89.052A22.269,22.269,0,1,1,89.052,66.783,22.269,22.269,0,0,1,111.321,89.052Z" transform="translate(-58.923 -58.923)" fill="#ffa800"></path><path id="&#x41A;&#x43E;&#x43D;&#x442;&#x443;&#x440;_27345" data-name="&#x41A;&#x43E;&#x43D;&#x442;&#x443;&#x440; 27345" d="M136.853,118.513a18.339,18.339,0,1,1-18.339-18.339A18.339,18.339,0,0,1,136.853,118.513Z" transform="translate(-88.384 -88.384)" fill="#fcca22"></path><path id="&#x41A;&#x43E;&#x43D;&#x442;&#x443;&#x440;_27346" data-name="&#x41A;&#x43E;&#x43D;&#x442;&#x443;&#x440; 27346" d="M100.109,158.007a.983.983,0,0,1-1.384.12,19.32,19.32,0,0,1,0-29.6.983.983,0,0,1,1.264,1.5,17.355,17.355,0,0,0,0,26.589A.982.982,0,0,1,100.109,158.007Z" transform="translate(-81.018 -113.2)" fill="#fff"></path><path id="&#x41A;&#x43E;&#x43D;&#x442;&#x443;&#x440;_27347" data-name="&#x41A;&#x43E;&#x43D;&#x442;&#x443;&#x440; 27347" d="M32.749,30.129a2.62,2.62,0,1,1-2.62-2.62A2.62,2.62,0,0,1,32.749,30.129Zm27.509,0a.983.983,0,0,1-.982.982h-17.4A11.791,11.791,0,0,1,31.111,41.877v17.4a.982.982,0,1,1-1.965,0v-17.4A11.792,11.792,0,0,1,18.38,31.111H.982a.982.982,0,1,1,0-1.965h17.4A11.791,11.791,0,0,1,29.146,18.38V.982a.982.982,0,1,1,1.965,0v17.4A11.792,11.792,0,0,1,41.877,29.146h17.4A.983.983,0,0,1,60.258,30.129Zm-24.889,0a5.24,5.24,0,1,0-5.24,5.24A5.24,5.24,0,0,0,35.369,30.129Z" fill="#ff2e57"></path><path id="&#x41A;&#x43E;&#x43D;&#x442;&#x443;&#x440;_27348" data-name="&#x41A;&#x43E;&#x43D;&#x442;&#x443;&#x440; 27348" d="M278.149,4.46,249.33,33.279a.982.982,0,0,1-1.389-1.389L276.76,3.071a.982.982,0,1,1,1.389,1.389Z" transform="translate(-218.507 -2.455)" fill="#221f46"></path></svg>