<svg xmlns="http://www.w3.org/2000/svg" id="analytics_1_" data-name="analytics (1)" width="65.44" height="65.439" viewBox="0 0 65.44 65.439"><path id="&#x41A;&#x43E;&#x43D;&#x442;&#x443;&#x440;_27332" data-name="&#x41A;&#x43E;&#x43D;&#x442;&#x443;&#x440; 27332" d="M133.793,409a1.067,1.067,0,0,1-1.067,1.067H92.893a1.067,1.067,0,1,1,0-2.134h13.159V396.2a1.067,1.067,0,1,1,2.134,0v11.736h9.247V396.2a1.067,1.067,0,1,1,2.134,0v11.736h13.159A1.067,1.067,0,0,1,133.793,409Z" transform="translate(-80.09 -344.628)" fill="#494666"></path><path id="&#x41A;&#x43E;&#x43D;&#x442;&#x443;&#x440;_27333" data-name="&#x41A;&#x43E;&#x43D;&#x442;&#x443;&#x440; 27333" d="M59.749,91.467H5.69A5.69,5.69,0,0,1,0,85.776V50.211a5.69,5.69,0,0,1,5.69-5.69H59.749a5.69,5.69,0,0,1,5.69,5.69V85.776A5.691,5.691,0,0,1,59.749,91.467Z" transform="translate(0 -38.831)" fill="#e8e9f1"></path><path id="&#x41A;&#x43E;&#x43D;&#x442;&#x443;&#x440;_27334" data-name="&#x41A;&#x43E;&#x43D;&#x442;&#x443;&#x440; 27334" d="M79.165,108.037H25.106a2.845,2.845,0,0,1-2.845-2.845V69.627a2.845,2.845,0,0,1,2.845-2.845H79.165a2.845,2.845,0,0,1,2.845,2.845v35.565A2.845,2.845,0,0,1,79.165,108.037Z" transform="translate(-19.416 -58.247)" fill="#f9faff"></path><path id="&#x41A;&#x43E;&#x43D;&#x442;&#x443;&#x440;_27335" data-name="&#x41A;&#x43E;&#x43D;&#x442;&#x443;&#x440; 27335" d="M137.161,395.255H103.019a2.845,2.845,0,0,1-2.845-2.845h0a2.845,2.845,0,0,1,2.845-2.845h34.142a2.845,2.845,0,0,1,2.845,2.845h0A2.845,2.845,0,0,1,137.161,395.255Z" transform="translate(-87.371 -339.774)" fill="#e8e9f1"></path><path id="&#x41A;&#x43E;&#x43D;&#x442;&#x443;&#x440;_27336" data-name="&#x41A;&#x43E;&#x43D;&#x442;&#x443;&#x440; 27336" d="M302.194,41.255h-12.8V2.845A2.845,2.845,0,0,1,292.236,0h7.113a2.845,2.845,0,0,1,2.845,2.845Z" transform="translate(-252.404)" fill="#8f6dff"></path><path id="&#x41A;&#x43E;&#x43D;&#x442;&#x443;&#x440;_27337" data-name="&#x41A;&#x43E;&#x43D;&#x442;&#x443;&#x440; 27337" d="M246.542,148.042h-12.8V125.28a2.845,2.845,0,0,1,2.845-2.845H243.7a2.845,2.845,0,0,1,2.845,2.845Z" transform="translate(-203.865 -106.786)" opacity="0.2"></path><path id="&#x41A;&#x43E;&#x43D;&#x442;&#x443;&#x440;_27338" data-name="&#x41A;&#x43E;&#x43D;&#x442;&#x443;&#x440; 27338" d="M224.281,128.626h-12.8V103.019a2.845,2.845,0,0,1,2.845-2.845h7.113a2.845,2.845,0,0,1,2.845,2.845Z" transform="translate(-184.449 -87.371)" fill="#ff2e57"></path><path id="&#x41A;&#x43E;&#x43D;&#x442;&#x443;&#x440;_27339" data-name="&#x41A;&#x43E;&#x43D;&#x442;&#x443;&#x440; 27339" d="M168.629,235.412h-12.8v-9.958a2.845,2.845,0,0,1,2.845-2.845h7.113a2.845,2.845,0,0,1,2.845,2.845Z" transform="translate(-135.91 -194.157)" opacity="0.16"></path><path id="&#x41A;&#x43E;&#x43D;&#x442;&#x443;&#x440;_27340" data-name="&#x41A;&#x43E;&#x43D;&#x442;&#x443;&#x440; 27340" d="M146.368,216h-12.8v-12.8a2.845,2.845,0,0,1,2.845-2.845h7.113a2.845,2.845,0,0,1,2.845,2.845Z" transform="translate(-116.494 -174.741)" fill="#fcca22"></path><path id="&#x41A;&#x43E;&#x43D;&#x442;&#x443;&#x440;_27341" data-name="&#x41A;&#x43E;&#x43D;&#x442;&#x443;&#x440; 27341" d="M108.913,318.284a1.067,1.067,0,0,1-1.067,1.067H65.067a1.067,1.067,0,1,1,0-2.134h42.779A1.067,1.067,0,0,1,108.913,318.284Zm3.1-1.067H111.8a1.067,1.067,0,1,0,0,2.134h.209a1.067,1.067,0,0,0,0-2.134Z" transform="translate(-55.82 -276.673)" fill="#e8e9f1"></path></svg>