<svg xmlns="http://www.w3.org/2000/svg" id="audience" width="65.135" height="65.135" viewBox="0 0 65.135 65.135"><path id="&#x41A;&#x43E;&#x43D;&#x442;&#x443;&#x440;_27349" data-name="&#x41A;&#x43E;&#x43D;&#x442;&#x443;&#x440; 27349" d="M65.135,311.751h0a5.664,5.664,0,0,1-5.664,5.664H5.664A5.664,5.664,0,0,1,0,311.751H0a5.664,5.664,0,0,1,5.664-5.664H59.471A5.664,5.664,0,0,1,65.135,311.751Z" transform="translate(0 -267.148)" fill="#d8dae9"></path><path id="&#x41A;&#x43E;&#x43D;&#x442;&#x443;&#x440;_27350" data-name="&#x41A;&#x43E;&#x43D;&#x442;&#x443;&#x440; 27350" d="M104.521,94a4.956,4.956,0,1,1-4.956-4.956A4.956,4.956,0,0,1,104.521,94Zm26.2-4.956A4.956,4.956,0,1,0,135.672,94,4.956,4.956,0,0,0,130.716,89.043Z" transform="translate(-82.573 -77.715)" fill="#e8e9f1"></path><path id="&#x41A;&#x43E;&#x43D;&#x442;&#x443;&#x440;_27351" data-name="&#x41A;&#x43E;&#x43D;&#x442;&#x443;&#x440; 27351" d="M83.775,121.192v9.027H66.783v-9.027a8.5,8.5,0,0,1,8.5-8.5h0A8.5,8.5,0,0,1,83.775,121.192Zm-9.2-21.018a2.832,2.832,0,1,0,2.832,2.832A2.832,2.832,0,0,0,74.571,100.174ZM106.43,112.7h0a8.5,8.5,0,0,0-8.5,8.5v9.027h16.992v-9.027A8.5,8.5,0,0,0,106.43,112.7Zm-.708-12.523a2.832,2.832,0,1,0,2.832,2.832A2.832,2.832,0,0,0,105.722,100.174Z" transform="translate(-58.287 -87.43)" fill="#d8dae9"></path><path id="&#x41A;&#x43E;&#x43D;&#x442;&#x443;&#x440;_27352" data-name="&#x41A;&#x43E;&#x43D;&#x442;&#x443;&#x440; 27352" d="M83.68,241.245a8.561,8.561,0,0,1,.1,1.275v10.133H66.783V245.21a6.543,6.543,0,0,0,5.487,2.973h0a6.549,6.549,0,0,0,6.549-6.549h0A2.446,2.446,0,0,1,83.68,241.245Zm26.291.39h0a6.549,6.549,0,0,1-6.549,6.549h0a6.543,6.543,0,0,1-5.487-2.973v7.442h16.992V242.52a8.561,8.561,0,0,0-.1-1.275A2.446,2.446,0,0,0,109.97,241.635Z" transform="translate(-58.287 -208.758)" fill="#e8e9f1"></path><path id="&#x41A;&#x43E;&#x43D;&#x442;&#x443;&#x440;_27353" data-name="&#x41A;&#x43E;&#x43D;&#x442;&#x443;&#x440; 27353" d="M100.4,343.323a1.062,1.062,0,0,1-1.062,1.062H48.366a1.062,1.062,0,1,1,0-2.124H99.341A1.062,1.062,0,0,1,100.4,343.323Z" transform="translate(-41.286 -298.72)" fill="#bdc1e1"></path><path id="&#x41A;&#x43E;&#x43D;&#x442;&#x443;&#x440;_27354" data-name="&#x41A;&#x43E;&#x43D;&#x442;&#x443;&#x440; 27354" d="M212.2,7.474A7.474,7.474,0,1,1,204.725,0,7.474,7.474,0,0,1,212.2,7.474Z" transform="translate(-172.157)" fill="#494666"></path><path id="&#x41A;&#x43E;&#x43D;&#x442;&#x443;&#x440;_27355" data-name="&#x41A;&#x43E;&#x43D;&#x442;&#x443;&#x440; 27355" d="M180.912,45.9v14.39H155.287V45.9a12.036,12.036,0,0,1,12.036-12.036h1.553A12.036,12.036,0,0,1,180.912,45.9Zm-13.88-29.119a4.271,4.271,0,1,0,4.271,4.271A4.271,4.271,0,0,0,167.032,16.786Z" transform="translate(-135.532 -14.651)" fill="#221f46"></path><path id="&#x41A;&#x43E;&#x43D;&#x442;&#x443;&#x440;_27356" data-name="&#x41A;&#x43E;&#x43D;&#x442;&#x443;&#x440; 27356" d="M180.768,215.367a12.925,12.925,0,0,1,.143,1.922V230.9H155.287v-9.555a9.867,9.867,0,0,0,8.275,4.484h0a9.876,9.876,0,0,0,9.876-9.876h0C173.438,211.415,180.093,210.878,180.768,215.367Z" transform="translate(-135.532 -185.259)" fill="#494666"></path><path id="&#x41A;&#x43E;&#x43D;&#x442;&#x443;&#x440;_27357" data-name="&#x41A;&#x43E;&#x43D;&#x442;&#x443;&#x440; 27357" d="M168.866,248.607A14.868,14.868,0,1,1,154,233.739,14.868,14.868,0,0,1,168.866,248.607Z" transform="translate(-121.43 -204.004)" fill="#f51843"></path><path id="&#x41A;&#x43E;&#x43D;&#x442;&#x443;&#x440;_27358" data-name="&#x41A;&#x43E;&#x43D;&#x442;&#x443;&#x440; 27358" d="M197.911,282.608A9.912,9.912,0,1,1,188,272.7,9.912,9.912,0,0,1,197.911,282.608Z" transform="translate(-155.431 -238.005)" fill="#fff"></path><path id="&#x41A;&#x43E;&#x43D;&#x442;&#x443;&#x440;_27359" data-name="&#x41A;&#x43E;&#x43D;&#x442;&#x443;&#x440; 27359" d="M117.973,209.749a2.832,2.832,0,1,1-2.832-2.832A2.832,2.832,0,0,1,117.973,209.749Zm-1.77,19.47V216.474a1.062,1.062,0,0,0-2.124,0v12.744a1.062,1.062,0,1,0,2.124,0Zm0-26.2V190.279a1.062,1.062,0,0,0-2.124,0v12.744a1.062,1.062,0,0,0,2.124,0Zm19.47,6.726a1.062,1.062,0,0,0-1.062-1.062H121.866a1.062,1.062,0,1,0,0,2.124H134.61A1.062,1.062,0,0,0,135.672,209.749Zm-26.2,0a1.062,1.062,0,0,0-1.062-1.062H95.671a1.062,1.062,0,1,0,0,2.124h12.744A1.062,1.062,0,0,0,109.477,209.749Z" transform="translate(-82.573 -165.146)" fill="#ff2e57"></path></svg>