<svg xmlns="http://www.w3.org/2000/svg" width="66.938" height="59.757" viewBox="0 0 66.938 59.757"><g id="map" transform="translate(0 0)"><g id="&#x421;&#x433;&#x440;&#x443;&#x43F;&#x43F;&#x438;&#x440;&#x43E;&#x432;&#x430;&#x442;&#x44C;_12641" data-name="&#x421;&#x433;&#x440;&#x443;&#x43F;&#x43F;&#x438;&#x440;&#x43E;&#x432;&#x430;&#x442;&#x44C; 12641" transform="translate(17.145 21.459)"><path id="&#x41A;&#x43E;&#x43D;&#x442;&#x443;&#x440;_28885" data-name="&#x41A;&#x43E;&#x43D;&#x442;&#x443;&#x440; 28885" d="M381.978,228.749l-5.259-28.973a.981.981,0,0,0-.489-.683l-13.236-7.362a.979.979,0,0,0-.554-.119l2.408,31.065-.081.036,15.841,7.107a.982.982,0,0,0,1.369-1.07Z" transform="translate(-332.2 -191.608)" fill="#00c6d1"></path><path id="&#x41A;&#x43E;&#x43D;&#x442;&#x443;&#x440;_28886" data-name="&#x41A;&#x43E;&#x43D;&#x442;&#x443;&#x440; 28886" d="M147.466,198.767l-13.537-7.051a.98.98,0,0,0-.519-.107,1.013,1.013,0,0,1,.141,0l-2.408,31.065,15.922,7.143a.984.984,0,0,0,.4.086h0Z" transform="translate(-131.142 -191.607)" fill="#00c6d1"></path></g><g id="&#x421;&#x433;&#x440;&#x443;&#x43F;&#x43F;&#x438;&#x440;&#x43E;&#x432;&#x430;&#x442;&#x44C;_12642" data-name="&#x421;&#x433;&#x440;&#x443;&#x43F;&#x43F;&#x438;&#x440;&#x43E;&#x432;&#x430;&#x442;&#x44C; 12642" transform="translate(0 21.46)"><path id="&#x41A;&#x43E;&#x43D;&#x442;&#x443;&#x440;_28887" data-name="&#x41A;&#x43E;&#x43D;&#x442;&#x443;&#x440; 28887" d="M19.553,191.613a.98.98,0,0,0-.554.119L5.763,199.094a.981.981,0,0,0-.489.683L.016,228.75a.982.982,0,0,0,1.369,1.071l15.755-7.068Z" transform="translate(0 -191.61)" fill="#00f2ff"></path><path id="&#x41A;&#x43E;&#x43D;&#x442;&#x443;&#x440;_28888" data-name="&#x41A;&#x43E;&#x43D;&#x442;&#x443;&#x440; 28888" d="M269.916,191.628a.979.979,0,0,0-.378.107L256,198.786v31.137h0a.982.982,0,0,0,.4-.086l15.922-7.143Z" transform="translate(-222.531 -191.626)" fill="#00f2ff"></path></g><path id="&#x41A;&#x43E;&#x43D;&#x442;&#x443;&#x440;_28889" data-name="&#x41A;&#x43E;&#x43D;&#x442;&#x443;&#x440; 28889" d="M21.051,268.09l-1.068,5.886L35.8,265.621l.367-4.738.061-.786Z" transform="translate(-17.37 -229.683)" fill="#fbc922"></path><path id="&#x41A;&#x43E;&#x43D;&#x442;&#x443;&#x440;_28890" data-name="&#x41A;&#x43E;&#x43D;&#x442;&#x443;&#x440; 28890" d="M18.574,288.294l-.142,1.837L2.613,298.486l-2.6,14.307a.982.982,0,0,0,1.369,1.071L17.14,306.8l1.434-18.5Z" transform="translate(0 -254.194)" fill="#f0eeff"></path><g id="&#x421;&#x433;&#x440;&#x443;&#x43F;&#x43F;&#x438;&#x440;&#x43E;&#x432;&#x430;&#x442;&#x44C;_12643" data-name="&#x421;&#x433;&#x440;&#x443;&#x43F;&#x43F;&#x438;&#x440;&#x43E;&#x432;&#x430;&#x442;&#x44C; 12643" transform="translate(18.431 24.827)"><path id="&#x41A;&#x43E;&#x43D;&#x442;&#x443;&#x440;_28891" data-name="&#x41A;&#x43E;&#x43D;&#x442;&#x443;&#x440; 28891" d="M156.019,262.187l-14.614-2.09-.428,5.524,15.038,22.837v-8.3l-8.974-14.13,8.977,1.074Z" transform="translate(-140.977 -254.511)" fill="#fbc922"></path><path id="&#x41A;&#x43E;&#x43D;&#x442;&#x443;&#x440;_28892" data-name="&#x41A;&#x43E;&#x43D;&#x442;&#x443;&#x440; 28892" d="M377.647,220.907l-6.359-3.537-6.02,1.407.075.972.3,3.835Z" transform="translate(-335.945 -217.37)" fill="#fbc922"></path></g><path id="&#x41A;&#x43E;&#x43D;&#x442;&#x443;&#x440;_28893" data-name="&#x41A;&#x43E;&#x43D;&#x442;&#x443;&#x440; 28893" d="M271.218,239.822l-.57-7.354h0l-.336-4.34L256.03,234.4v4.911l9.329-4.057Z" transform="translate(-222.557 -201.894)" fill="#fbc922"></path><path id="&#x41A;&#x43E;&#x43D;&#x442;&#x443;&#x440;_28894" data-name="&#x41A;&#x43E;&#x43D;&#x442;&#x443;&#x440; 28894" d="M386.914,292.456l-1.321-7.278L368.119,264.9l.534,6.887,17.92,21.6A.98.98,0,0,0,386.914,292.456Z" transform="translate(-319.991 -233.857)" fill="#fbc922"></path><path id="&#x41A;&#x43E;&#x43D;&#x442;&#x443;&#x440;_28895" data-name="&#x41A;&#x43E;&#x43D;&#x442;&#x443;&#x440; 28895" d="M165.1,27.465A13.753,13.753,0,0,0,151.361,41.2c0,4.684,2.224,9.713,6.61,14.946a46.971,46.971,0,0,0,6.533,6.42.983.983,0,0,0,1.2,0,46.98,46.98,0,0,0,6.533-6.42c4.386-5.234,6.61-10.262,6.61-14.946A13.754,13.754,0,0,0,165.1,27.465Zm5.09,13.732a5.09,5.09,0,1,1-5.09-5.085A5.088,5.088,0,0,1,170.194,41.2Z" transform="translate(-131.572 -27.466)" fill="#ff2e57"></path><path id="&#x41A;&#x43E;&#x43D;&#x442;&#x443;&#x440;_28896" data-name="&#x41A;&#x43E;&#x43D;&#x442;&#x443;&#x440; 28896" d="M244.695,27.465a13.82,13.82,0,0,0-1.773.114A13.757,13.757,0,0,1,254.893,41.2c0,4.684-2.224,9.713-6.61,14.946a49.147,49.147,0,0,1-5.361,5.448c.687.6,1.124.935,1.171.972a.983.983,0,0,0,1.2,0,46.982,46.982,0,0,0,6.533-6.42c4.386-5.234,6.61-10.262,6.61-14.946A13.754,13.754,0,0,0,244.695,27.465Z" transform="translate(-211.163 -27.466)" fill="#f61843"></path><path id="&#x41A;&#x43E;&#x43D;&#x442;&#x443;&#x440;_28897" data-name="&#x41A;&#x43E;&#x43D;&#x442;&#x443;&#x440; 28897" d="M256.4,422.707l5.921-2.656L256,413.507v9.286h0A.98.98,0,0,0,256.4,422.707Z" transform="translate(-222.531 -363.037)" fill="#ffdb56"></path><g id="&#x421;&#x433;&#x440;&#x443;&#x43F;&#x43F;&#x438;&#x440;&#x43E;&#x432;&#x430;&#x442;&#x44C;_12644" data-name="&#x421;&#x433;&#x440;&#x443;&#x43F;&#x43F;&#x438;&#x440;&#x43E;&#x432;&#x430;&#x442;&#x44C; 12644" transform="translate(17.145 28.364)"><path id="&#x41A;&#x43E;&#x43D;&#x442;&#x443;&#x440;_28898" data-name="&#x41A;&#x43E;&#x43D;&#x442;&#x443;&#x440; 28898" d="M381.654,245.682a.981.981,0,0,0-.489-.683l-1.042-.58L368.118,247.1h0l17.474,20.28Z" transform="translate(-337.136 -244.42)" fill="#d7d4ff"></path><path id="&#x41A;&#x43E;&#x43D;&#x442;&#x443;&#x440;_28899" data-name="&#x41A;&#x43E;&#x43D;&#x442;&#x443;&#x440; 28899" d="M147.464,326.165h0v-.982l-15.038-22.837-1.286,16.59,15.922,7.143A.982.982,0,0,0,147.464,326.165Z" transform="translate(-131.14 -294.773)" fill="#d7d4ff"></path></g></g></svg>