<svg xmlns="http://www.w3.org/2000/svg" id="optimization" width="57.42" height="57.42" viewBox="0 0 57.42 57.42"><path id="&#x41A;&#x43E;&#x43D;&#x442;&#x443;&#x440;_27373" data-name="&#x41A;&#x43E;&#x43D;&#x442;&#x443;&#x440; 27373" d="M57.42,38.385V42.13H0V38.385a4.993,4.993,0,0,1,4.993-4.993H52.427A4.993,4.993,0,0,1,57.42,38.385Z" transform="translate(0 -29.647)" fill="#494666"></path><path id="&#x41A;&#x43E;&#x43D;&#x442;&#x443;&#x440;_27374" data-name="&#x41A;&#x43E;&#x43D;&#x442;&#x443;&#x440; 27374" d="M383.089,58.815v.125a.936.936,0,1,1-1.872,0v-.125a.936.936,0,1,1,1.872,0Zm2.809-.936a.936.936,0,0,0-.936.936v.125a.936.936,0,0,0,1.872,0v-.125A.936.936,0,0,0,385.9,57.879Zm3.745,0a.936.936,0,0,0-.936.936v.125a.936.936,0,0,0,1.872,0v-.125A.936.936,0,0,0,389.643,57.879Z" transform="translate(-338.464 -51.388)" fill="#fff"></path><path id="&#x41A;&#x43E;&#x43D;&#x442;&#x443;&#x440;_27375" data-name="&#x41A;&#x43E;&#x43D;&#x442;&#x443;&#x440; 27375" d="M57.42,11.234V46.186a4.993,4.993,0,0,1-4.993,4.993H4.993A4.993,4.993,0,0,1,0,46.186V11.234H7.49V2.5A2.5,2.5,0,0,1,9.986,0h9.986a2.5,2.5,0,0,1,2.5,2.5v8.738Z" fill="#f9faff"></path><path id="&#x41A;&#x43E;&#x43D;&#x442;&#x443;&#x440;_27376" data-name="&#x41A;&#x43E;&#x43D;&#x442;&#x443;&#x440; 27376" d="M100.589,162.744v13.731a2.5,2.5,0,0,1-2.5,2.5H58.149a2.5,2.5,0,0,1-2.5-2.5V162.744a2.5,2.5,0,0,1,2.5-2.5H98.093A2.5,2.5,0,0,1,100.589,162.744Zm-42.441-7.49H69.383a2.5,2.5,0,0,0,2.5-2.5h0a2.5,2.5,0,0,0-2.5-2.5H58.149a2.5,2.5,0,0,0-2.5,2.5h0A2.5,2.5,0,0,0,58.149,155.254Zm39.944-4.993H78.121a2.5,2.5,0,0,0-2.5,2.5h0a2.5,2.5,0,0,0,2.5,2.5H98.093a2.5,2.5,0,0,0,2.5-2.5h0A2.5,2.5,0,0,0,98.093,150.261Z" transform="translate(-49.411 -133.409)" fill="#e8e9f1"></path><path id="&#x41A;&#x43E;&#x43D;&#x442;&#x443;&#x440;_27377" data-name="&#x41A;&#x43E;&#x43D;&#x442;&#x443;&#x440; 27377" d="M81.762,2.5v8.738H66.783V2.5A2.5,2.5,0,0,1,69.28,0h9.986A2.5,2.5,0,0,1,81.762,2.5Z" transform="translate(-59.293)" fill="#ffa800"></path><path id="&#x41A;&#x43E;&#x43D;&#x442;&#x443;&#x440;_27378" data-name="&#x41A;&#x43E;&#x43D;&#x442;&#x443;&#x440; 27378" d="M99.03,29.075v2.5a1.248,1.248,0,0,1-1.248,1.248h-7.49a1.248,1.248,0,0,1-1.248-1.248v-2.5a1.248,1.248,0,0,1,1.248-1.248h7.49A1.248,1.248,0,0,1,99.03,29.075Z" transform="translate(-79.058 -24.706)" fill="#f8bd04"></path><path id="&#x41A;&#x43E;&#x43D;&#x442;&#x443;&#x440;_27379" data-name="&#x41A;&#x43E;&#x43D;&#x442;&#x443;&#x440; 27379" d="M236.407,281.048h0a3.263,3.263,0,0,1-4.457,1.194l-1.427-.824a9.777,9.777,0,0,1-3.1,1.791v1.645a3.263,3.263,0,0,1-6.526,0v-1.645a9.779,9.779,0,0,1-3.1-1.791l-1.427.824a3.263,3.263,0,0,1-4.457-1.194h0a3.263,3.263,0,0,1,1.194-4.457l1.426-.823a9.859,9.859,0,0,1,0-3.579l-1.426-.823a3.263,3.263,0,0,1-1.194-4.457h0a3.263,3.263,0,0,1,4.457-1.194l1.427.824a9.777,9.777,0,0,1,3.1-1.791V263.1a3.263,3.263,0,0,1,6.526,0v1.645a9.78,9.78,0,0,1,3.1,1.791l1.427-.824a3.263,3.263,0,0,1,4.457,1.194h0a3.263,3.263,0,0,1-1.194,4.457l-1.426.823a9.859,9.859,0,0,1,0,3.579l1.426.823A3.263,3.263,0,0,1,236.407,281.048Z" transform="translate(-187.761 -230.698)" fill="#221f46"></path><path id="&#x41A;&#x43E;&#x43D;&#x442;&#x443;&#x440;_27380" data-name="&#x41A;&#x43E;&#x43D;&#x442;&#x443;&#x440; 27380" d="M279.431,334.252a6.526,6.526,0,1,1-6.526-6.526A6.526,6.526,0,0,1,279.431,334.252Z" transform="translate(-236.505 -290.972)" fill="#494666"></path><path id="&#x41A;&#x43E;&#x43D;&#x442;&#x443;&#x440;_27381" data-name="&#x41A;&#x43E;&#x43D;&#x442;&#x443;&#x440; 27381" d="M302,360.085a3.263,3.263,0,1,1-3.263-3.263A3.263,3.263,0,0,1,302,360.085Z" transform="translate(-262.338 -316.805)" fill="#fff"></path></svg>