<svg xmlns="http://www.w3.org/2000/svg" width="209.591" height="84.8" viewBox="0 0 209.591 84.8"><g id="&#x421;&#x433;&#x440;&#x443;&#x43F;&#x43F;&#x438;&#x440;&#x43E;&#x432;&#x430;&#x442;&#x44C;_12677" data-name="&#x421;&#x433;&#x440;&#x443;&#x43F;&#x43F;&#x438;&#x440;&#x43E;&#x432;&#x430;&#x442;&#x44C; 12677" transform="translate(-236.988 -162.518)"><g id="&#x421;&#x433;&#x440;&#x443;&#x43F;&#x43F;&#x438;&#x440;&#x43E;&#x432;&#x430;&#x442;&#x44C;_10796" data-name="&#x421;&#x433;&#x440;&#x443;&#x43F;&#x43F;&#x438;&#x440;&#x43E;&#x432;&#x430;&#x442;&#x44C; 10796" transform="translate(236.988 162.518)"><g id="&#x421;&#x433;&#x440;&#x443;&#x43F;&#x43F;&#x438;&#x440;&#x43E;&#x432;&#x430;&#x442;&#x44C;_10793" data-name="&#x421;&#x433;&#x440;&#x443;&#x43F;&#x43F;&#x438;&#x440;&#x43E;&#x432;&#x430;&#x442;&#x44C; 10793" transform="translate(0 81.447)"><path id="&#x41A;&#x43E;&#x43D;&#x442;&#x443;&#x440;_25802" data-name="&#x41A;&#x43E;&#x43D;&#x442;&#x443;&#x440; 25802" d="M393.9,451.574a.774.774,0,0,1-.526-.714q-.024-.917-.013-1.833a.774.774,0,1,1,1.547.016q-.009.889.013,1.777a.775.775,0,0,1-1.021.753Z" transform="translate(-393.361 -448.261)" fill="#6737c2"></path></g><g id="&#x421;&#x433;&#x440;&#x443;&#x43F;&#x43F;&#x438;&#x440;&#x43E;&#x432;&#x430;&#x442;&#x44C;_10794" data-name="&#x421;&#x433;&#x440;&#x443;&#x43F;&#x43F;&#x438;&#x440;&#x43E;&#x432;&#x430;&#x442;&#x44C; 10794" transform="translate(0.168)"><path id="&#x41A;&#x43E;&#x43D;&#x442;&#x443;&#x440;_25803" data-name="&#x41A;&#x43E;&#x43D;&#x442;&#x443;&#x440; 25803" d="M394.316,319.906a.774.774,0,0,1-.523-.8c.1-1.211.238-2.442.419-3.657a.774.774,0,1,1,1.531.227c-.175,1.181-.312,2.376-.407,3.553a.775.775,0,0,1-1.019.671Zm1.063-7.175a.774.774,0,0,1-.508-.9c.255-1.184.554-2.384.888-3.568a.774.774,0,0,1,1.489.42c-.326,1.153-.616,2.322-.865,3.474a.774.774,0,0,1-1,.57Zm1.971-6.98a.776.776,0,0,1-.483-.989c.4-1.147.844-2.3,1.316-3.43a.774.774,0,0,1,1.428.6c-.46,1.1-.892,2.226-1.284,3.344A.774.774,0,0,1,397.35,305.752Zm2.8-6.691a.782.782,0,0,1-.093-.038.773.773,0,0,1-.355-1.035c.535-1.093,1.11-2.187,1.709-3.251a.774.774,0,1,1,1.348.76c-.585,1.038-1.146,2.105-1.668,3.172A.774.774,0,0,1,400.15,299.061Zm3.56-6.322a.775.775,0,0,1-.4-1.151c.66-1.028,1.357-2.049,2.073-3.034a.774.774,0,1,1,1.252.91c-.7.961-1.379,1.957-2.022,2.96A.774.774,0,0,1,403.709,292.739Zm4.265-5.872a.774.774,0,0,1-.351-1.224c.774-.945,1.585-1.878,2.412-2.774a.774.774,0,1,1,1.137,1.049c-.806.874-1.6,1.784-2.353,2.706A.774.774,0,0,1,407.975,286.867Zm4.923-5.333a.774.774,0,0,1-.287-1.291c.885-.85,1.8-1.68,2.73-2.466a.774.774,0,1,1,1,1.18c-.9.766-1.8,1.573-2.66,2.4A.774.774,0,0,1,412.9,281.534Zm39.822,12.96q-.313-.106-.622-.226a16.89,16.89,0,0,1-1.951-.9.774.774,0,1,1,.739-1.36,15.259,15.259,0,0,0,1.773.819,13.289,13.289,0,0,0,1.414.46.774.774,0,0,1-.4,1.5Q453.195,294.654,452.72,294.494Zm4.494.752a.774.774,0,0,1,.255-1.507,13.977,13.977,0,0,0,3.407-.392.774.774,0,0,1,.365,1.5,15.513,15.513,0,0,1-3.785.436A.8.8,0,0,1,457.214,295.246Zm-9.889-3.93a.776.776,0,0,1-.277-.165,15.133,15.133,0,0,1-2.448-2.923.774.774,0,1,1,1.3-.837,13.6,13.6,0,0,0,2.2,2.624.774.774,0,0,1-.774,1.3Zm16.865,2.225a.774.774,0,0,1-.118-1.415,12.587,12.587,0,0,0,2.759-2,.774.774,0,1,1,1.071,1.117,14.126,14.126,0,0,1-3.1,2.247A.773.773,0,0,1,464.191,293.542Zm-20.775-8.25a.773.773,0,0,1-.482-.474,19.088,19.088,0,0,1-.9-3.666.774.774,0,0,1,1.532-.222,17.544,17.544,0,0,0,.825,3.369.774.774,0,0,1-.977.993Zm-24.981-8.452a.774.774,0,0,1-.214-1.354c.986-.733,2-1.44,3.024-2.1a.774.774,0,0,1,.84,1.3c-.993.642-1.982,1.328-2.94,2.042A.774.774,0,0,1,418.435,276.84Zm50.918,11.732a.793.793,0,0,1-.144-.066.773.773,0,0,1-.276-1.059,13.007,13.007,0,0,0,1.107-2.4q.125-.37.22-.736a.774.774,0,1,1,1.5.393q-.109.417-.252.838a14.541,14.541,0,0,1-1.238,2.688A.776.776,0,0,1,469.353,288.573ZM424.533,272.9a.774.774,0,0,1-.127-1.411c1.078-.6,2.183-1.156,3.286-1.667a.774.774,0,0,1,.651,1.4c-1.069.5-2.142,1.04-3.188,1.617A.772.772,0,0,1,424.533,272.9Zm17.82,5.251a.774.774,0,0,1-.526-.756,23.851,23.851,0,0,1,.407-3.726.774.774,0,1,1,1.521.287,22.33,22.33,0,0,0-.381,3.484.775.775,0,0,1-1.021.711Zm-11.237-8.295a.774.774,0,0,1-.025-1.458c1.151-.433,2.328-.824,3.5-1.163a.774.774,0,1,1,.431,1.486c-1.131.328-2.27.707-3.384,1.126A.768.768,0,0,1,431.116,269.861ZM471.1,281.648a.773.773,0,0,1-.524-.675,10.4,10.4,0,0,0-.807-3.262.774.774,0,0,1,1.425-.6,11.936,11.936,0,0,1,.925,3.748.774.774,0,0,1-1.019.793Zm-27.407-10.6a.777.777,0,0,1-.482-.991,23.506,23.506,0,0,1,1.525-3.425.259.259,0,0,0,0-.368.773.773,0,0,1,.743-.8c1.224-.047,2.465-.044,3.69.011a.774.774,0,0,1-.069,1.546c-.967-.043-1.945-.053-2.915-.03a.766.766,0,0,1-.095.387,21.979,21.979,0,0,0-1.423,3.2A.775.775,0,0,1,443.69,271.05Zm-5.615-3.2a.774.774,0,0,1,.091-1.492c1.2-.247,2.425-.447,3.636-.6a.774.774,0,1,1,.187,1.536c-1.169.143-2.351.337-3.512.576A.771.771,0,0,1,438.075,267.845Zm30.3,7.192a.772.772,0,0,1-.36-.255,16.562,16.562,0,0,0-2.421-2.473.774.774,0,1,1,.99-1.189,18.1,18.1,0,0,1,2.648,2.705.774.774,0,0,1-.857,1.211ZM452.5,267.289a.774.774,0,0,1,.346-1.5c1.212.155,2.436.362,3.637.616a.774.774,0,1,1-.32,1.514c-1.16-.245-2.342-.446-3.513-.595A.762.762,0,0,1,452.5,267.289Zm10.359,3.1a.774.774,0,0,1-.136-.061,21.169,21.169,0,0,0-3.174-1.473.773.773,0,0,1-.46-.993.758.758,0,0,1,.993-.46,22.753,22.753,0,0,1,3.407,1.58.774.774,0,0,1-.63,1.406Zm-15.808-5.747a.766.766,0,0,1-.18-.089.774.774,0,0,1-.218-1.072c.679-1.026,1.4-2.032,2.149-2.992a.774.774,0,0,1,1.221.951c-.723.928-1.422,1.9-2.079,2.9A.774.774,0,0,1,447.049,264.642Zm4.448-5.716a.774.774,0,0,1-.324-1.255c.826-.905,1.7-1.788,2.589-2.623a.774.774,0,0,1,1.058,1.13c-.862.807-1.7,1.661-2.5,2.536A.774.774,0,0,1,451.5,258.926Zm5.286-4.952a.774.774,0,0,1-.235-1.338c.953-.762,1.952-1.5,2.969-2.191a.774.774,0,0,1,.87,1.28c-.984.669-1.95,1.382-2.873,2.12A.775.775,0,0,1,456.783,253.974Zm5.994-4.084a.774.774,0,0,1-.139-1.4c1.052-.607,2.146-1.187,3.251-1.724a.774.774,0,1,1,.677,1.392c-1.073.522-2.134,1.084-3.154,1.673A.771.771,0,0,1,462.777,249.891Zm6.514-3.172a.774.774,0,0,1-.044-1.45c1.12-.454,2.28-.882,3.446-1.27a.774.774,0,0,1,.489,1.469c-1.136.378-2.264.794-3.354,1.236A.77.77,0,0,1,469.291,246.719Zm6.87-2.293a.774.774,0,0,1,.046-1.481c1.165-.312,2.366-.6,3.568-.847a.774.774,0,0,1,.315,1.516c-1.173.244-2.345.522-3.482.827A.769.769,0,0,1,476.161,244.426Zm7.091-1.481a.774.774,0,0,1,.129-1.5c1.189-.183,2.412-.338,3.633-.464a.774.774,0,1,1,.158,1.54c-1.2.123-2.392.275-3.556.454A.765.765,0,0,1,483.252,242.945Zm70.684,21.377a.772.772,0,0,1-.274-.162c-.882-.806-1.791-1.6-2.7-2.366a.774.774,0,1,1,.993-1.187c.93.778,1.858,1.59,2.756,2.411a.774.774,0,0,1-.77,1.3ZM490.46,242.2a.774.774,0,0,1,.205-1.506c1.2-.066,2.436-.106,3.659-.118a.774.774,0,0,1,.015,1.548c-1.2.012-2.408.051-3.59.115A.766.766,0,0,1,490.46,242.2Zm57.912,17.465a.774.774,0,0,1-.222-.118c-.945-.722-1.922-1.434-2.9-2.117a.774.774,0,1,1,.884-1.271c1,.7,2,1.422,2.96,2.158a.774.774,0,0,1-.717,1.348Zm-50.661-17.539a.774.774,0,0,1,.274-1.507c1.207.04,2.437.107,3.656.2a.774.774,0,0,1-.115,1.544c-1.2-.089-2.406-.155-3.592-.194A.769.769,0,0,1,497.711,242.128Zm44.7,13.4a.78.78,0,0,1-.165-.079c-1.008-.635-2.045-1.257-3.082-1.849a.774.774,0,0,1,.766-1.345c1.058.6,2.115,1.237,3.142,1.884a.774.774,0,0,1-.66,1.388ZM504.95,242.666a.774.774,0,0,1,.337-1.5c1.2.138,2.423.3,3.63.489a.774.774,0,0,1-.236,1.53c-1.187-.184-2.389-.346-3.571-.482A.8.8,0,0,1,504.95,242.666Zm31.16,9.269a.74.74,0,0,1-.106-.045c-1.058-.542-2.146-1.069-3.235-1.568a.774.774,0,0,1,.644-1.407c1.11.508,2.218,1.046,3.3,1.6a.774.774,0,0,1-.6,1.422Zm-23.979-8.159a.774.774,0,0,1,.4-1.493c1.193.232,2.4.489,3.578.766a.774.774,0,1,1-.352,1.507c-1.162-.272-2.347-.525-3.522-.753A.773.773,0,0,1,512.132,243.776Zm17.382,5.136-.045-.017q-.916-.372-1.844-.725-.752-.285-1.515-.56a.774.774,0,1,1,.523-1.457q.776.279,1.541.569.946.359,1.879.739a.774.774,0,0,1-.538,1.45ZM519.2,245.429a.774.774,0,0,1,.453-1.48c1.174.322,2.356.67,3.511,1.035a.764.764,0,0,1,.5.971.774.774,0,0,1-.971.505c-1.136-.359-2.3-.7-3.454-1.018Z" transform="translate(-393.79 -240.578)" fill="#6737c2"></path></g><g id="&#x421;&#x433;&#x440;&#x443;&#x43F;&#x43F;&#x438;&#x440;&#x43E;&#x432;&#x430;&#x442;&#x44C;_10795" data-name="&#x421;&#x433;&#x440;&#x443;&#x43F;&#x43F;&#x438;&#x440;&#x43E;&#x432;&#x430;&#x442;&#x44C; 10795" transform="translate(162.5 24.831)"><path id="&#x41A;&#x43E;&#x43D;&#x442;&#x443;&#x440;_25804" data-name="&#x41A;&#x43E;&#x43D;&#x442;&#x443;&#x440; 25804" d="M809.512,306.693a.774.774,0,0,1-.311-.2q-.62-.648-1.251-1.279a.774.774,0,1,1,1.1-1.094q.642.644,1.274,1.3a.774.774,0,0,1-.807,1.269Z" transform="translate(-807.724 -303.894)" fill="#6737c2"></path></g></g><path id="&#x41A;&#x43E;&#x43D;&#x442;&#x443;&#x440;_25805" data-name="&#x41A;&#x43E;&#x43D;&#x442;&#x443;&#x440; 25805" d="M805.531,309.153l1.639,4.813,46.313-8.273Z" transform="translate(-406.903 -117.641)" fill="#6737c2"></path><path id="&#x41A;&#x43E;&#x43D;&#x442;&#x443;&#x440;_25806" data-name="&#x41A;&#x43E;&#x43D;&#x442;&#x443;&#x440; 25806" d="M801.394,270.545l2.673,7.084,46.9,6.7Z" transform="translate(-404.389 -96.275)" fill="#6737c2"></path><path id="&#x41A;&#x43E;&#x43D;&#x442;&#x443;&#x440;_25807" data-name="&#x41A;&#x43E;&#x43D;&#x442;&#x443;&#x440; 25807" d="M801.394,257.335l7.849-8.523,41.725,22.307Z" transform="translate(-404.389 -83.066)" fill="#00cfff"></path><path id="&#x41A;&#x43E;&#x43D;&#x442;&#x443;&#x440;_25808" data-name="&#x41A;&#x43E;&#x43D;&#x442;&#x443;&#x440; 25808" d="M770.729,285.784,759.3,298.713l66.082-5.121Z" transform="translate(-378.802 -105.539)" fill="#00cfff"></path></g></svg>