<svg xmlns="http://www.w3.org/2000/svg" width="65.048" height="60.019" viewBox="0 0 65.048 60.019"><g id="telephone" transform="translate(0 0)"><g id="&#x421;&#x433;&#x440;&#x443;&#x43F;&#x43F;&#x438;&#x440;&#x43E;&#x432;&#x430;&#x442;&#x44C;_12651" data-name="&#x421;&#x433;&#x440;&#x443;&#x43F;&#x43F;&#x438;&#x440;&#x43E;&#x432;&#x430;&#x442;&#x44C; 12651" transform="translate(0 -0.001)"><g id="&#x421;&#x433;&#x440;&#x443;&#x43F;&#x43F;&#x438;&#x440;&#x43E;&#x432;&#x430;&#x442;&#x44C;_12650" data-name="&#x421;&#x433;&#x440;&#x443;&#x43F;&#x43F;&#x438;&#x440;&#x43E;&#x432;&#x430;&#x442;&#x44C; 12650"><g id="&#x421;&#x433;&#x440;&#x443;&#x43F;&#x43F;&#x438;&#x440;&#x43E;&#x432;&#x430;&#x442;&#x44C;_12649" data-name="&#x421;&#x433;&#x440;&#x443;&#x43F;&#x43F;&#x438;&#x440;&#x43E;&#x432;&#x430;&#x442;&#x44C; 12649"><g id="&#x421;&#x433;&#x440;&#x443;&#x43F;&#x43F;&#x438;&#x440;&#x43E;&#x432;&#x430;&#x442;&#x44C;_12648" data-name="&#x421;&#x433;&#x440;&#x443;&#x43F;&#x43F;&#x438;&#x440;&#x43E;&#x432;&#x430;&#x442;&#x44C; 12648"><g id="&#x421;&#x433;&#x440;&#x443;&#x43F;&#x43F;&#x438;&#x440;&#x43E;&#x432;&#x430;&#x442;&#x44C;_12647" data-name="&#x421;&#x433;&#x440;&#x443;&#x43F;&#x43F;&#x438;&#x440;&#x43E;&#x432;&#x430;&#x442;&#x44C; 12647"><g id="&#x421;&#x433;&#x440;&#x443;&#x43F;&#x43F;&#x438;&#x440;&#x43E;&#x432;&#x430;&#x442;&#x44C;_12646" data-name="&#x421;&#x433;&#x440;&#x443;&#x43F;&#x43F;&#x438;&#x440;&#x43E;&#x432;&#x430;&#x442;&#x44C; 12646"><path id="&#x41A;&#x43E;&#x43D;&#x442;&#x443;&#x440;_28900" data-name="&#x41A;&#x43E;&#x43D;&#x442;&#x443;&#x440; 28900" d="M49.259,31.573l-.169.727.436.409L56.5,34.664l.817-2.48c1.106-3.758,1.282-6.9-.273-9.175-7.294-2.287-17.023-3.283-24.522-3.21-7.667-.074-17.665.967-25.007,3.364A10.884,10.884,0,0,0,.445,36.58l.021.062.554.328L15.4,32.939l.555-.639-.169-.727a2.384,2.384,0,0,1,2.319-2.937H46.94a2.384,2.384,0,0,1,2.319,2.937Z" transform="translate(0 -19.795)" fill="#8f6dff"></path><g id="&#x421;&#x433;&#x440;&#x443;&#x43F;&#x43F;&#x438;&#x440;&#x43E;&#x432;&#x430;&#x442;&#x44C;_12645" data-name="&#x421;&#x433;&#x440;&#x443;&#x43F;&#x43F;&#x438;&#x440;&#x43E;&#x432;&#x430;&#x442;&#x44C; 12645" transform="translate(0.466 2.915)"><path id="&#x41A;&#x43E;&#x43D;&#x442;&#x443;&#x440;_28901" data-name="&#x41A;&#x43E;&#x43D;&#x442;&#x443;&#x440; 28901" d="M441.744,52.215l-.772,2.344,8.2,2.3.358-.186.021-.062a10.884,10.884,0,0,0-7.072-13.418q-.72-.235-1.474-.453C443.009,44.964,442.915,48.235,441.744,52.215Z" transform="translate(-385.413 -42.739)" fill="#805bf9"></path><path id="&#x41A;&#x43E;&#x43D;&#x442;&#x443;&#x440;_28902" data-name="&#x41A;&#x43E;&#x43D;&#x442;&#x443;&#x440; 28902" d="M19.8,120.974l-.64-2.751L3.665,122.565l.895,2.691a3.571,3.571,0,0,0,4.353,2.312l8.371-2.346A3.571,3.571,0,0,0,19.8,120.974Z" transform="translate(-3.665 -108.633)" fill="#6737c1"></path><path id="&#x41A;&#x43E;&#x43D;&#x442;&#x443;&#x440;_28903" data-name="&#x41A;&#x43E;&#x43D;&#x442;&#x443;&#x440; 28903" d="M396.838,122.565l-15.492-4.342-.64,2.751a3.571,3.571,0,0,0,2.514,4.248l8.371,2.346a3.571,3.571,0,0,0,4.353-2.312l.895-2.691Z" transform="translate(-332.721 -108.633)" fill="#6737c1"></path></g><path id="&#x41A;&#x43E;&#x43D;&#x442;&#x443;&#x440;_28904" data-name="&#x41A;&#x43E;&#x43D;&#x442;&#x443;&#x440; 28904" d="M423.552,138.778l.895-2.691h0l-8.472-2.374-1,3.043a3.57,3.57,0,0,1-2.735,2.384l6.961,1.951A3.571,3.571,0,0,0,423.552,138.778Z" transform="translate(-359.864 -119.239)" fill="#6737c1"></path></g></g></g></g></g></g><g id="&#x421;&#x433;&#x440;&#x443;&#x43F;&#x43F;&#x438;&#x440;&#x43E;&#x432;&#x430;&#x442;&#x44C;_12663" data-name="&#x421;&#x433;&#x440;&#x443;&#x43F;&#x43F;&#x438;&#x440;&#x43E;&#x432;&#x430;&#x442;&#x44C; 12663" transform="translate(4.175 14.936)"><g id="&#x421;&#x433;&#x440;&#x443;&#x43F;&#x43F;&#x438;&#x440;&#x43E;&#x432;&#x430;&#x442;&#x44C;_12662" data-name="&#x421;&#x433;&#x440;&#x443;&#x43F;&#x43F;&#x438;&#x440;&#x43E;&#x432;&#x430;&#x442;&#x44C; 12662"><g id="&#x421;&#x433;&#x440;&#x443;&#x43F;&#x43F;&#x438;&#x440;&#x43E;&#x432;&#x430;&#x442;&#x44C;_12661" data-name="&#x421;&#x433;&#x440;&#x443;&#x43F;&#x43F;&#x438;&#x440;&#x43E;&#x432;&#x430;&#x442;&#x44C; 12661"><g id="&#x421;&#x433;&#x440;&#x443;&#x43F;&#x43F;&#x438;&#x440;&#x43E;&#x432;&#x430;&#x442;&#x44C;_12656" data-name="&#x421;&#x433;&#x440;&#x443;&#x43F;&#x43F;&#x438;&#x440;&#x43E;&#x432;&#x430;&#x442;&#x44C; 12656"><g id="&#x421;&#x433;&#x440;&#x443;&#x43F;&#x43F;&#x438;&#x440;&#x43E;&#x432;&#x430;&#x442;&#x44C;_12654" data-name="&#x421;&#x433;&#x440;&#x443;&#x43F;&#x43F;&#x438;&#x440;&#x43E;&#x432;&#x430;&#x442;&#x44C; 12654" transform="translate(5.107 37.005)"><g id="&#x421;&#x433;&#x440;&#x443;&#x43F;&#x43F;&#x438;&#x440;&#x43E;&#x432;&#x430;&#x442;&#x44C;_12652" data-name="&#x421;&#x433;&#x440;&#x443;&#x43F;&#x43F;&#x438;&#x440;&#x43E;&#x432;&#x430;&#x442;&#x44C; 12652"><path id="&#x41A;&#x43E;&#x43D;&#x442;&#x443;&#x440;_28905" data-name="&#x41A;&#x43E;&#x43D;&#x442;&#x443;&#x440; 28905" d="M80.331,436.708H74.493a1.433,1.433,0,0,1-1.433-1.433v-6.644h8.7v6.644A1.433,1.433,0,0,1,80.331,436.708Z" transform="translate(-73.06 -428.631)" fill="#494666"></path></g><g id="&#x421;&#x433;&#x440;&#x443;&#x43F;&#x43F;&#x438;&#x440;&#x43E;&#x432;&#x430;&#x442;&#x44C;_12653" data-name="&#x421;&#x433;&#x440;&#x443;&#x43F;&#x43F;&#x438;&#x440;&#x43E;&#x432;&#x430;&#x442;&#x44C; 12653" transform="translate(37.78)"><path id="&#x41A;&#x43E;&#x43D;&#x442;&#x443;&#x440;_28906" data-name="&#x41A;&#x43E;&#x43D;&#x442;&#x443;&#x440; 28906" d="M377.7,436.708h-5.837a1.433,1.433,0,0,1-1.433-1.433v-6.644h8.7v6.644A1.433,1.433,0,0,1,377.7,436.708Z" transform="translate(-370.433 -428.631)" fill="#494666"></path></g></g><g id="&#x421;&#x433;&#x440;&#x443;&#x43F;&#x43F;&#x438;&#x440;&#x43E;&#x432;&#x430;&#x442;&#x44C;_12655" data-name="&#x421;&#x433;&#x440;&#x443;&#x43F;&#x43F;&#x438;&#x440;&#x43E;&#x432;&#x430;&#x442;&#x44C; 12655" transform="translate(16.255)"><path id="&#x41A;&#x43E;&#x43D;&#x442;&#x443;&#x440;_28907" data-name="&#x41A;&#x43E;&#x43D;&#x442;&#x443;&#x440; 28907" d="M160.8,149.455h7.188v-10.4a1.694,1.694,0,0,0-1.694-1.694h-3.8a1.694,1.694,0,0,0-1.694,1.694Z" transform="translate(-160.8 -137.361)" fill="#6737c1"></path><path id="&#x41A;&#x43E;&#x43D;&#x442;&#x443;&#x440;_28908" data-name="&#x41A;&#x43E;&#x43D;&#x442;&#x443;&#x440; 28908" d="M294.62,149.455h7.188v-10.4a1.694,1.694,0,0,0-1.694-1.694h-3.8a1.694,1.694,0,0,0-1.694,1.694Z" transform="translate(-277.619 -137.361)" fill="#6737c1"></path></g><path id="&#x41A;&#x43E;&#x43D;&#x442;&#x443;&#x440;_28909" data-name="&#x41A;&#x43E;&#x43D;&#x442;&#x443;&#x440; 28909" d="M71.625,171.159H50.792a3.546,3.546,0,0,0-2.35.89L37.77,181.49a14.554,14.554,0,0,0-4.911,10.9v10.551a4.732,4.732,0,0,0,4.732,4.732H84.826a4.732,4.732,0,0,0,4.732-4.732V192.391a14.554,14.554,0,0,0-4.911-10.9l-10.672-9.441a3.547,3.547,0,0,0-2.35-.89Z" transform="translate(-32.859 -166.865)" fill="#d7d4ff"></path><path id="&#x41A;&#x43E;&#x43D;&#x442;&#x443;&#x440;_28910" data-name="&#x41A;&#x43E;&#x43D;&#x442;&#x443;&#x440; 28910" d="M290.508,181.49l-10.672-9.441a3.546,3.546,0,0,0-2.35-.89H268.68a3.546,3.546,0,0,1,2.35.89L281.7,181.49a14.554,14.554,0,0,1,4.911,10.9v10.551a4.732,4.732,0,0,1-4.732,4.732h8.806a4.732,4.732,0,0,0,4.732-4.732V192.391A14.555,14.555,0,0,0,290.508,181.49Z" transform="translate(-238.72 -166.865)" fill="#8f6dff"></path></g><g id="&#x421;&#x433;&#x440;&#x443;&#x43F;&#x43F;&#x438;&#x440;&#x43E;&#x432;&#x430;&#x442;&#x44C;_12660" data-name="&#x421;&#x433;&#x440;&#x443;&#x43F;&#x43F;&#x438;&#x440;&#x43E;&#x432;&#x430;&#x442;&#x44C; 12660" transform="translate(14.649 14.7)"><g id="&#x421;&#x433;&#x440;&#x443;&#x43F;&#x43F;&#x438;&#x440;&#x43E;&#x432;&#x430;&#x442;&#x44C;_12657" data-name="&#x421;&#x433;&#x440;&#x443;&#x43F;&#x43F;&#x438;&#x440;&#x43E;&#x432;&#x430;&#x442;&#x44C; 12657"><path id="&#x41A;&#x43E;&#x43D;&#x442;&#x443;&#x440;_28911" data-name="&#x41A;&#x43E;&#x43D;&#x442;&#x443;&#x440; 28911" d="M153.289,256.929h-4.072a1.054,1.054,0,0,1-1.053-1.053v-1.754a1.053,1.053,0,0,1,1.053-1.053h4.072a1.053,1.053,0,0,1,1.053,1.053v1.754A1.053,1.053,0,0,1,153.289,256.929Z" transform="translate(-148.164 -253.068)" fill="#f51843"></path><path id="&#x41A;&#x43E;&#x43D;&#x442;&#x443;&#x440;_28912" data-name="&#x41A;&#x43E;&#x43D;&#x442;&#x443;&#x440; 28912" d="M236.807,256.929h-4.072a1.053,1.053,0,0,1-1.053-1.053v-1.754a1.053,1.053,0,0,1,1.053-1.053h4.072a1.053,1.053,0,0,1,1.053,1.053v1.754A1.053,1.053,0,0,1,236.807,256.929Z" transform="translate(-221.071 -253.068)" fill="#f51843"></path><path id="&#x41A;&#x43E;&#x43D;&#x442;&#x443;&#x440;_28913" data-name="&#x41A;&#x43E;&#x43D;&#x442;&#x443;&#x440; 28913" d="M320.327,256.929h-4.072a1.054,1.054,0,0,1-1.053-1.053v-1.754a1.053,1.053,0,0,1,1.053-1.053h4.072a1.054,1.054,0,0,1,1.053,1.053v1.754A1.054,1.054,0,0,1,320.327,256.929Z" transform="translate(-293.979 -253.068)" fill="#f51843"></path></g><g id="&#x421;&#x433;&#x440;&#x443;&#x43F;&#x43F;&#x438;&#x440;&#x43E;&#x432;&#x430;&#x442;&#x44C;_12658" data-name="&#x421;&#x433;&#x440;&#x443;&#x43F;&#x43F;&#x438;&#x440;&#x43E;&#x432;&#x430;&#x442;&#x44C; 12658" transform="translate(0 8.196)"><path id="&#x41A;&#x43E;&#x43D;&#x442;&#x443;&#x440;_28914" data-name="&#x41A;&#x43E;&#x43D;&#x442;&#x443;&#x440; 28914" d="M153.289,321.442h-4.072a1.054,1.054,0,0,1-1.053-1.053v-1.754a1.053,1.053,0,0,1,1.053-1.053h4.072a1.053,1.053,0,0,1,1.053,1.053v1.754A1.053,1.053,0,0,1,153.289,321.442Z" transform="translate(-148.164 -317.581)" fill="#f51843"></path><path id="&#x41A;&#x43E;&#x43D;&#x442;&#x443;&#x440;_28915" data-name="&#x41A;&#x43E;&#x43D;&#x442;&#x443;&#x440; 28915" d="M236.807,321.442h-4.072a1.053,1.053,0,0,1-1.053-1.053v-1.754a1.053,1.053,0,0,1,1.053-1.053h4.072a1.054,1.054,0,0,1,1.053,1.053v1.754A1.053,1.053,0,0,1,236.807,321.442Z" transform="translate(-221.071 -317.581)" fill="#f51843"></path><path id="&#x41A;&#x43E;&#x43D;&#x442;&#x443;&#x440;_28916" data-name="&#x41A;&#x43E;&#x43D;&#x442;&#x443;&#x440; 28916" d="M320.327,321.442h-4.072a1.054,1.054,0,0,1-1.053-1.053v-1.754a1.053,1.053,0,0,1,1.053-1.053h4.072a1.054,1.054,0,0,1,1.053,1.053v1.754A1.053,1.053,0,0,1,320.327,321.442Z" transform="translate(-293.979 -317.581)" fill="#f51843"></path></g><g id="&#x421;&#x433;&#x440;&#x443;&#x43F;&#x43F;&#x438;&#x440;&#x43E;&#x432;&#x430;&#x442;&#x44C;_12659" data-name="&#x421;&#x433;&#x440;&#x443;&#x43F;&#x43F;&#x438;&#x440;&#x43E;&#x432;&#x430;&#x442;&#x44C; 12659" transform="translate(0 16.392)"><path id="&#x41A;&#x43E;&#x43D;&#x442;&#x443;&#x440;_28917" data-name="&#x41A;&#x43E;&#x43D;&#x442;&#x443;&#x440; 28917" d="M153.289,385.955h-4.072a1.054,1.054,0,0,1-1.053-1.053v-1.754a1.053,1.053,0,0,1,1.053-1.053h4.072a1.053,1.053,0,0,1,1.053,1.053V384.9A1.053,1.053,0,0,1,153.289,385.955Z" transform="translate(-148.164 -382.094)" fill="#f51843"></path><path id="&#x41A;&#x43E;&#x43D;&#x442;&#x443;&#x440;_28918" data-name="&#x41A;&#x43E;&#x43D;&#x442;&#x443;&#x440; 28918" d="M236.807,385.955h-4.072a1.053,1.053,0,0,1-1.053-1.053v-1.754a1.053,1.053,0,0,1,1.053-1.053h4.072a1.054,1.054,0,0,1,1.053,1.053V384.9A1.053,1.053,0,0,1,236.807,385.955Z" transform="translate(-221.071 -382.094)" fill="#f51843"></path><path id="&#x41A;&#x43E;&#x43D;&#x442;&#x443;&#x440;_28919" data-name="&#x41A;&#x43E;&#x43D;&#x442;&#x443;&#x440; 28919" d="M320.327,385.955h-4.072A1.054,1.054,0,0,1,315.2,384.9v-1.754a1.053,1.053,0,0,1,1.053-1.053h4.072a1.054,1.054,0,0,1,1.053,1.053V384.9A1.054,1.054,0,0,1,320.327,385.955Z" transform="translate(-293.979 -382.094)" fill="#f51843"></path></g></g></g></g></g></g></svg>