<svg xmlns="http://www.w3.org/2000/svg" width="59.724" height="59.725" viewBox="0 0 59.724 59.725"><g id="wall-clock" transform="translate(0 0)"><path id="&#x41A;&#x43E;&#x43D;&#x442;&#x443;&#x440;_28880" data-name="&#x41A;&#x43E;&#x43D;&#x442;&#x443;&#x440; 28880" d="M201.4,0l-7.21,29.862,7.21,29.862A29.862,29.862,0,0,0,201.4,0Z" transform="translate(-171.537 0.001)" fill="#ffa800"></path><path id="&#x41A;&#x43E;&#x43D;&#x442;&#x443;&#x440;_28881" data-name="&#x41A;&#x43E;&#x43D;&#x442;&#x443;&#x440; 28881" d="M0,29.862A29.862,29.862,0,0,0,29.862,59.725V0A29.862,29.862,0,0,0,0,29.862Z" transform="translate(0 0.001)" fill="#fcca22"></path><path id="&#x41A;&#x43E;&#x43D;&#x442;&#x443;&#x440;_28882" data-name="&#x41A;&#x43E;&#x43D;&#x442;&#x443;&#x440; 28882" d="M256,30.905V83.419a26.257,26.257,0,1,0,0-52.514Z" transform="translate(-226.138 -27.299)" fill="#ffe281"></path><path id="&#x41A;&#x43E;&#x43D;&#x442;&#x443;&#x440;_28883" data-name="&#x41A;&#x43E;&#x43D;&#x442;&#x443;&#x440; 28883" d="M79.814,57.162c0-14.5-10.142-26.257-22.652-26.257a26.257,26.257,0,0,0,0,52.514C69.673,83.419,79.814,71.664,79.814,57.162Z" transform="translate(-27.3 -27.299)" fill="#fff"></path><path id="&#x41A;&#x43E;&#x43D;&#x442;&#x443;&#x440;_28884" data-name="&#x41A;&#x43E;&#x43D;&#x442;&#x443;&#x440; 28884" d="M177.056,147.817a.9.9,0,0,1-.9-.9v-22.41l-9.4-16.286a.9.9,0,1,1,1.561-.9l9.644,16.7v22.894A.9.9,0,0,1,177.056,147.817Z" transform="translate(-147.194 -94.401)" fill="#221f46"></path><g id="&#x421;&#x433;&#x440;&#x443;&#x43F;&#x43F;&#x438;&#x440;&#x43E;&#x432;&#x430;&#x442;&#x44C;_12640" data-name="&#x421;&#x433;&#x440;&#x443;&#x43F;&#x43F;&#x438;&#x440;&#x43E;&#x432;&#x430;&#x442;&#x44C; 12640" transform="translate(6.309 6.31)"><ellipse id="&#x42D;&#x43B;&#x43B;&#x438;&#x43F;&#x441;_1258" data-name="&#x42D;&#x43B;&#x43B;&#x438;&#x43F;&#x441; 1258" cx="0.901" cy="0.901" rx="0.901" ry="0.901" transform="translate(22.652)" fill="#ff2e57"></ellipse><ellipse id="&#x42D;&#x43B;&#x43B;&#x438;&#x43F;&#x441;_1259" data-name="&#x42D;&#x43B;&#x43B;&#x438;&#x43F;&#x441; 1259" cx="0.901" cy="0.901" rx="0.901" ry="0.901" transform="translate(11.326 3.034)" fill="#ff2e57"></ellipse><ellipse id="&#x42D;&#x43B;&#x43B;&#x438;&#x43F;&#x441;_1260" data-name="&#x42D;&#x43B;&#x43B;&#x438;&#x43F;&#x441; 1260" cx="0.901" cy="0.901" rx="0.901" ry="0.901" transform="translate(3.034 11.326)" fill="#ff2e57"></ellipse><ellipse id="&#x42D;&#x43B;&#x43B;&#x438;&#x43F;&#x441;_1261" data-name="&#x42D;&#x43B;&#x43B;&#x438;&#x43F;&#x441; 1261" cx="0.901" cy="0.901" rx="0.901" ry="0.901" transform="translate(0 22.652)" fill="#ff2e57"></ellipse><ellipse id="&#x42D;&#x43B;&#x43B;&#x438;&#x43F;&#x441;_1262" data-name="&#x42D;&#x43B;&#x43B;&#x438;&#x43F;&#x441; 1262" cx="0.901" cy="0.901" rx="0.901" ry="0.901" transform="translate(3.034 33.978)" fill="#ff2e57"></ellipse><ellipse id="&#x42D;&#x43B;&#x43B;&#x438;&#x43F;&#x441;_1263" data-name="&#x42D;&#x43B;&#x43B;&#x438;&#x43F;&#x441; 1263" cx="0.901" cy="0.901" rx="0.901" ry="0.901" transform="translate(11.326 42.27)" fill="#ff2e57"></ellipse><ellipse id="&#x42D;&#x43B;&#x43B;&#x438;&#x43F;&#x441;_1264" data-name="&#x42D;&#x43B;&#x43B;&#x438;&#x43F;&#x441; 1264" cx="0.901" cy="0.901" rx="0.901" ry="0.901" transform="translate(33.978 42.27)" fill="#ff2e57"></ellipse><ellipse id="&#x42D;&#x43B;&#x43B;&#x438;&#x43F;&#x441;_1265" data-name="&#x42D;&#x43B;&#x43B;&#x438;&#x43F;&#x441; 1265" cx="0.901" cy="0.901" rx="0.901" ry="0.901" transform="translate(42.27 33.978)" fill="#ff2e57"></ellipse><ellipse id="&#x42D;&#x43B;&#x43B;&#x438;&#x43F;&#x441;_1266" data-name="&#x42D;&#x43B;&#x43B;&#x438;&#x43F;&#x441; 1266" cx="0.901" cy="0.901" rx="0.901" ry="0.901" transform="translate(45.304 22.652)" fill="#ff2e57"></ellipse><ellipse id="&#x42D;&#x43B;&#x43B;&#x438;&#x43F;&#x441;_1267" data-name="&#x42D;&#x43B;&#x43B;&#x438;&#x43F;&#x441; 1267" cx="0.901" cy="0.901" rx="0.901" ry="0.901" transform="translate(42.27 11.326)" fill="#ff2e57"></ellipse><ellipse id="&#x42D;&#x43B;&#x43B;&#x438;&#x43F;&#x441;_1268" data-name="&#x42D;&#x43B;&#x43B;&#x438;&#x43F;&#x441; 1268" cx="0.901" cy="0.901" rx="0.901" ry="0.901" transform="translate(33.978 3.034)" fill="#ff2e57"></ellipse></g><circle id="&#x42D;&#x43B;&#x43B;&#x438;&#x43F;&#x441;_1269" data-name="&#x42D;&#x43B;&#x43B;&#x438;&#x43F;&#x441; 1269" cx="1.803" cy="1.803" r="1.803" transform="translate(28.06 28.06)" fill="#ff2e57"></circle></g></svg>